<svg xmlns="http://www.w3.org/2000/svg" viewBox="0 0 400 225" role="img" aria-label="йќ™еЇ‚гЃЁж··жІЊ">
  <!-- zen side: paper white with swiss grid -->
  <rect width="400" height="225" fill="#f5f4ef"/>
  <g stroke="#1a1a1a" stroke-width="0.5" opacity="0.15">
    <line x1="0" y1="45" x2="400" y2="45"/>
    <line x1="0" y1="180" x2="400" y2="180"/>
    <line x1="40" y1="0" x2="40" y2="225"/>
  </g>
  <!-- chaos side: black veil -->
  <rect x="232" width="168" height="225" fill="#0c0c0c"/>
  <!-- boundary hairline -->
  <line x1="232" y1="0" x2="232" y2="225" stroke="#00ff66" stroke-width="1.5"/>
  <!-- zen type -->
  <text x="40" y="118" font-family="Georgia, 'Times New Roman', serif" font-size="44" font-weight="700" fill="#1a1a1a" letter-spacing="2">йќ™еЇ‚</text>
  <text x="40" y="145" font-family="Arial, sans-serif" font-size="10" fill="#555" letter-spacing="4">ZEN вЂ” SWISS STYLE</text>
  <!-- chaos type: broken glyphs -->
  <text x="252" y="112" font-family="Georgia, serif" font-size="40" font-weight="700" fill="#f5f4ef" transform="rotate(-7 252 112)">ж··</text>
  <text x="300" y="126" font-family="Georgia, serif" font-size="40" font-weight="700" fill="#00ff66" transform="rotate(6 300 126)">жІЊ</text>
  <!-- particles -->
  <g fill="#f5f4ef">
    <rect x="250" y="52" width="2.5" height="2.5" opacity="0.9"/>
    <rect x="272" y="40" width="2" height="2" opacity="0.6"/>
    <rect x="305" y="58" width="2.5" height="2.5" opacity="0.8"/>
    <rect x="338" y="47" width="2" height="2" opacity="0.5"/>
    <rect x="362" y="70" width="2.5" height="2.5" opacity="0.9"/>
    <rect x="255" y="160" width="2" height="2" opacity="0.7"/>
    <rect x="290" y="172" width="2.5" height="2.5" opacity="0.9"/>
    <rect x="322" y="158" width="2" height="2" opacity="0.6"/>
    <rect x="352" y="176" width="2.5" height="2.5" opacity="0.8"/>
    <rect x="376" y="150" width="2" height="2" opacity="0.5"/>
  </g>
  <g fill="#00ff66">
    <rect x="264" y="80" width="2.5" height="2.5"/>
    <rect x="344" y="120" width="2.5" height="2.5"/>
    <rect x="310" y="190" width="2.5" height="2.5"/>
  </g>
  <g fill="#8c4aff">
    <rect x="285" y="65" width="2.5" height="2.5"/>
    <rect x="360" y="100" width="2.5" height="2.5"/>
  </g>
  <text x="252" y="200" font-family="Arial, sans-serif" font-size="9" fill="#888" letter-spacing="3">CHAOS вЂ” GENERATIVE</text>
</svg>
